<svg width="137" height="44" viewBox="0 0 137 44" fill="none" xmlns="http://www.w3.org/2000/svg">
<rect x="1" width="3.94161" height="28.2264" fill="white"/>
<rect x="7.89795" width="4.92701" height="28.2264" fill="white"/>
<rect x="15.7812" width="0.985402" height="28.2264" fill="white"/>
<rect x="22.6787" width="7.88321" height="28.2264" fill="white"/>
<rect x="18.7373" width="2.9562" height="28.2264" fill="white"/>
<rect x="33.5181" width="4.92701" height="28.2264" fill="white"/>
<rect x="41.4014" width="1.9708" height="28.2264" fill="white"/>
<rect x="46.3286" width="3.94161" height="28.2264" fill="white"/>
<rect x="53.2261" width="0.985402" height="28.2264" fill="white"/>
<rect x="56.1826" width="3.94161" height="28.2264" fill="white"/>
<rect x="63.0801" width="1.9708" height="28.2264" fill="white"/>
<rect x="68.0073" width="3.94161" height="28.2264" fill="white"/>
<rect x="74.9053" width="1.9708" height="28.2264" fill="white"/>
<rect x="79.832" width="9.85402" height="28.2264" fill="white"/>
<rect x="92.6426" width="2.9562" height="28.2264" fill="white"/>
<rect x="97.5693" width="1.9708" height="28.2264" fill="white"/>
<rect x="100.525" width="6.89781" height="28.2264" fill="white"/>
<rect x="110.379" width="2.9562" height="28.2264" fill="white"/>
<rect x="116.292" width="1.9708" height="28.2264" fill="white"/>
<rect x="121.219" width="4.92701" height="28.2264" fill="white"/>
<rect x="133.044" width="2.9562" height="28.2264" fill="white"/>
<rect x="129.102" width="0.985402" height="28.2264" fill="white"/>
<path d="M3.6 42.837C3.064 42.837 2.596 42.733 2.196 42.525C1.804 42.309 1.5 42.009 1.284 41.625C1.068 41.233 0.96 40.777 0.96 40.257V36.417C0.96 35.889 1.068 35.433 1.284 35.049C1.5 34.665 1.804 34.369 2.196 34.161C2.596 33.945 3.064 33.837 3.6 33.837C4.144 33.837 4.612 33.945 5.004 34.161C5.396 34.369 5.7 34.665 5.916 35.049C6.132 35.433 6.24 35.889 6.24 36.417V40.257C6.24 40.777 6.132 41.233 5.916 41.625C5.7 42.009 5.392 42.309 4.992 42.525C4.6 42.733 4.136 42.837 3.6 42.837ZM3.6 41.913C4.08 41.913 4.464 41.761 4.752 41.457C5.048 41.145 5.196 40.745 5.196 40.257V36.417C5.196 35.929 5.048 35.533 4.752 35.229C4.464 34.917 4.08 34.761 3.6 34.761C3.12 34.761 2.732 34.917 2.436 35.229C2.148 35.533 2.004 35.929 2.004 36.417V40.257C2.004 40.745 2.148 41.145 2.436 41.457C2.732 41.761 3.12 41.913 3.6 41.913ZM3.6 39.045C3.384 39.045 3.208 38.977 3.072 38.841C2.944 38.705 2.88 38.525 2.88 38.301C2.88 38.085 2.944 37.913 3.072 37.785C3.208 37.649 3.384 37.581 3.6 37.581C3.816 37.581 3.988 37.649 4.116 37.785C4.252 37.913 4.32 38.085 4.32 38.301C4.32 38.525 4.252 38.705 4.116 38.841C3.988 38.977 3.816 39.045 3.6 39.045ZM8.27531 42.717V41.733H10.6513V34.857L8.27531 36.633V35.433L10.2553 33.957H11.7313V41.733H13.6753V42.717H8.27531ZM15.4946 42.717V41.613L18.1706 38.769C18.6266 38.281 18.9586 37.849 19.1666 37.473C19.3746 37.089 19.4786 36.721 19.4786 36.369C19.4786 35.881 19.3426 35.497 19.0706 35.217C18.8066 34.937 18.4426 34.797 17.9786 34.797C17.4666 34.797 17.0626 34.941 16.7666 35.229C16.4786 35.517 16.3346 35.913 16.3346 36.417H15.2546C15.2706 35.889 15.3906 35.433 15.6146 35.049C15.8466 34.657 16.1626 34.357 16.5626 34.149C16.9706 33.941 17.4426 33.837 17.9786 33.837C18.5066 33.837 18.9626 33.941 19.3466 34.149C19.7386 34.349 20.0386 34.637 20.2466 35.013C20.4546 35.389 20.5586 35.837 20.5586 36.357C20.5586 36.853 20.4266 37.345 20.1626 37.833C19.8986 38.321 19.4666 38.877 18.8666 39.501L16.7066 41.733H20.7026V42.717H15.4946ZM25.1859 42.837C24.8819 42.837 24.6379 42.749 24.4539 42.573C24.2779 42.397 24.1899 42.161 24.1899 41.865C24.1899 41.553 24.2779 41.305 24.4539 41.121C24.6379 40.937 24.8819 40.845 25.1859 40.845C25.4899 40.845 25.7299 40.937 25.9059 41.121C26.0899 41.305 26.1819 41.553 26.1819 41.865C26.1819 42.161 26.0899 42.397 25.9059 42.573C25.7299 42.749 25.4899 42.837 25.1859 42.837ZM32.3813 42.837C31.8453 42.837 31.3773 42.733 30.9773 42.525C30.5853 42.309 30.2813 42.009 30.0653 41.625C29.8493 41.233 29.7413 40.777 29.7413 40.257V36.417C29.7413 35.889 29.8493 35.433 30.0653 35.049C30.2813 34.665 30.5853 34.369 30.9773 34.161C31.3773 33.945 31.8453 33.837 32.3813 33.837C32.9253 33.837 33.3933 33.945 33.7853 34.161C34.1773 34.369 34.4813 34.665 34.6973 35.049C34.9133 35.433 35.0213 35.889 35.0213 36.417V40.257C35.0213 40.777 34.9133 41.233 34.6973 41.625C34.4813 42.009 34.1733 42.309 33.7733 42.525C33.3813 42.733 32.9173 42.837 32.3813 42.837ZM32.3813 41.913C32.8613 41.913 33.2453 41.761 33.5333 41.457C33.8293 41.145 33.9773 40.745 33.9773 40.257V36.417C33.9773 35.929 33.8293 35.533 33.5333 35.229C33.2453 34.917 32.8613 34.761 32.3813 34.761C31.9013 34.761 31.5133 34.917 31.2173 35.229C30.9293 35.533 30.7853 35.929 30.7853 36.417V40.257C30.7853 40.745 30.9293 41.145 31.2173 41.457C31.5133 41.761 31.9013 41.913 32.3813 41.913ZM32.3813 39.045C32.1653 39.045 31.9893 38.977 31.8533 38.841C31.7253 38.705 31.6613 38.525 31.6613 38.301C31.6613 38.085 31.7253 37.913 31.8533 37.785C31.9893 37.649 32.1653 37.581 32.3813 37.581C32.5973 37.581 32.7693 37.649 32.8973 37.785C33.0333 37.913 33.1013 38.085 33.1013 38.301C33.1013 38.525 33.0333 38.705 32.8973 38.841C32.7693 38.977 32.5973 39.045 32.3813 39.045ZM37.0566 42.717V41.733H39.4326V34.857L37.0566 36.633V35.433L39.0366 33.957H40.5126V41.733H42.4566V42.717H37.0566ZM44.2759 42.717V41.613L46.9519 38.769C47.4079 38.281 47.7399 37.849 47.9479 37.473C48.1559 37.089 48.2599 36.721 48.2599 36.369C48.2599 35.881 48.1239 35.497 47.8519 35.217C47.5879 34.937 47.2239 34.797 46.7599 34.797C46.2479 34.797 45.8439 34.941 45.5479 35.229C45.2599 35.517 45.1159 35.913 45.1159 36.417H44.0359C44.0519 35.889 44.1719 35.433 44.3959 35.049C44.6279 34.657 44.9439 34.357 45.3439 34.149C45.7519 33.941 46.2239 33.837 46.7599 33.837C47.2879 33.837 47.7439 33.941 48.1279 34.149C48.5199 34.349 48.8199 34.637 49.0279 35.013C49.2359 35.389 49.3399 35.837 49.3399 36.357C49.3399 36.853 49.2079 37.345 48.9439 37.833C48.6799 38.321 48.2479 38.877 47.6479 39.501L45.4879 41.733H49.4839V42.717H44.2759ZM53.8352 42.837C53.3072 42.837 52.8432 42.733 52.4432 42.525C52.0512 42.309 51.7472 42.013 51.5312 41.637C51.3152 41.261 51.2072 40.821 51.2072 40.317H52.2872C52.2872 40.805 52.4232 41.189 52.6952 41.469C52.9752 41.741 53.3592 41.877 53.8472 41.877C54.3432 41.877 54.7272 41.733 54.9992 41.445C55.2712 41.157 55.4072 40.781 55.4072 40.317V39.693C55.4072 39.197 55.2712 38.813 54.9992 38.541C54.7272 38.269 54.3432 38.133 53.8472 38.133H52.9472V37.053L55.1192 34.941H51.5672V33.957H56.2112V35.037L53.8712 37.305V37.173C54.6712 37.173 55.3072 37.401 55.7792 37.857C56.2512 38.313 56.4872 38.925 56.4872 39.693V40.317C56.4872 40.821 56.3752 41.261 56.1512 41.637C55.9352 42.013 55.6272 42.309 55.2272 42.525C54.8272 42.733 54.3632 42.837 53.8352 42.837ZM61.1625 42.837C60.8585 42.837 60.6145 42.749 60.4305 42.573C60.2545 42.397 60.1665 42.161 60.1665 41.865C60.1665 41.553 60.2545 41.305 60.4305 41.121C60.6145 40.937 60.8585 40.845 61.1625 40.845C61.4665 40.845 61.7065 40.937 61.8825 41.121C62.0665 41.305 62.1585 41.553 62.1585 41.865C62.1585 42.161 62.0665 42.397 61.8825 42.573C61.7065 42.749 61.4665 42.837 61.1625 42.837ZM69.6778 42.717V40.797H65.7178V39.105L69.1858 33.957H70.3618L66.7978 39.333V39.813H69.6778V37.677H70.7578V42.717H69.6778ZM75.5291 42.837C74.8171 42.837 74.2331 42.653 73.7771 42.285C73.3211 41.917 73.0531 41.421 72.9731 40.797H74.0531C74.0931 41.141 74.2411 41.409 74.4971 41.601C74.7531 41.785 75.1011 41.877 75.5411 41.877C76.0451 41.877 76.4211 41.741 76.6691 41.469C76.9251 41.197 77.0531 40.813 77.0531 40.317V39.465C77.0531 38.969 76.9251 38.585 76.6691 38.313C76.4211 38.041 76.0491 37.905 75.5531 37.905C75.2411 37.905 74.9691 37.989 74.7371 38.157C74.5051 38.317 74.3371 38.533 74.2331 38.805H73.1531L73.2131 33.957H77.8211V34.941H74.2571L74.2211 37.857H74.5571L74.2211 38.169C74.2211 37.793 74.3691 37.497 74.6651 37.281C74.9691 37.065 75.3731 36.957 75.8771 36.957C76.5891 36.949 77.1411 37.169 77.5331 37.617C77.9331 38.057 78.1331 38.673 78.1331 39.465V40.317C78.1331 41.093 77.9051 41.709 77.4491 42.165C76.9931 42.613 76.3531 42.837 75.5291 42.837ZM82.7604 42.837C82.2004 42.837 81.7084 42.721 81.2844 42.489C80.8684 42.249 80.5444 41.917 80.3124 41.493C80.0804 41.069 79.9644 40.577 79.9644 40.017C79.9644 39.577 80.0244 39.145 80.1444 38.721C80.2724 38.297 80.4604 37.889 80.7084 37.497L82.9044 33.957H84.1044L81.6204 37.941L81.6684 37.977C81.8204 37.753 82.0284 37.581 82.2924 37.461C82.5564 37.341 82.8524 37.281 83.1804 37.281C83.6604 37.281 84.0764 37.393 84.4284 37.617C84.7804 37.841 85.0524 38.157 85.2444 38.565C85.4364 38.973 85.5324 39.457 85.5324 40.017C85.5324 40.577 85.4164 41.069 85.1844 41.493C84.9524 41.917 84.6284 42.249 84.2124 42.489C83.8044 42.721 83.3204 42.837 82.7604 42.837ZM82.7484 41.877C83.2604 41.877 83.6724 41.709 83.9844 41.373C84.2964 41.029 84.4524 40.577 84.4524 40.017C84.4524 39.457 84.2964 39.009 83.9844 38.673C83.6724 38.329 83.2604 38.157 82.7484 38.157C82.2364 38.157 81.8244 38.329 81.5124 38.673C81.2004 39.009 81.0444 39.457 81.0444 40.017C81.0444 40.577 81.2004 41.029 81.5124 41.373C81.8244 41.709 82.2364 41.877 82.7484 41.877ZM89.9438 42.837C89.6398 42.837 89.3958 42.749 89.2118 42.573C89.0358 42.397 88.9478 42.161 88.9478 41.865C88.9478 41.553 89.0358 41.305 89.2118 41.121C89.3958 40.937 89.6398 40.845 89.9438 40.845C90.2478 40.845 90.4878 40.937 90.6638 41.121C90.8478 41.305 90.9398 41.553 90.9398 41.865C90.9398 42.161 90.8478 42.397 90.6638 42.573C90.4878 42.749 90.2478 42.837 89.9438 42.837ZM95.7591 42.717L98.8911 34.941H95.5791V36.237H94.4991V33.957H99.9591V35.013L96.9231 42.717H95.7591ZM104.334 42.837C103.798 42.837 103.33 42.745 102.93 42.561C102.538 42.369 102.234 42.097 102.018 41.745C101.802 41.393 101.694 40.981 101.694 40.509C101.694 39.989 101.834 39.541 102.114 39.165C102.402 38.789 102.854 38.453 103.47 38.157L104.634 37.593C104.986 37.425 105.258 37.205 105.45 36.933C105.642 36.661 105.738 36.361 105.738 36.033C105.738 35.649 105.61 35.345 105.354 35.121C105.106 34.897 104.766 34.785 104.334 34.785C103.902 34.785 103.558 34.901 103.302 35.133C103.054 35.357 102.93 35.661 102.93 36.045C102.93 36.365 103.022 36.661 103.206 36.933C103.398 37.205 103.658 37.421 103.986 37.581L105.15 38.133C105.79 38.429 106.254 38.769 106.542 39.153C106.83 39.529 106.974 39.981 106.974 40.509C106.974 41.221 106.734 41.789 106.254 42.213C105.782 42.629 105.142 42.837 104.334 42.837ZM104.334 41.877C104.822 41.877 105.206 41.753 105.486 41.505C105.774 41.249 105.918 40.909 105.918 40.485C105.918 40.141 105.826 39.829 105.642 39.549C105.458 39.269 105.194 39.045 104.85 38.877L103.698 38.313C103.058 38.001 102.594 37.665 102.306 37.305C102.018 36.945 101.874 36.513 101.874 36.009C101.874 35.561 101.974 35.173 102.174 34.845C102.374 34.517 102.658 34.265 103.026 34.089C103.394 33.913 103.83 33.825 104.334 33.825C104.838 33.825 105.274 33.913 105.642 34.089C106.01 34.265 106.294 34.517 106.494 34.845C106.694 35.173 106.794 35.561 106.794 36.009C106.794 36.513 106.65 36.945 106.362 37.305C106.074 37.657 105.598 37.997 104.934 38.325L103.782 38.889C103.454 39.049 103.198 39.269 103.014 39.549C102.838 39.821 102.75 40.125 102.75 40.461C102.75 40.893 102.89 41.237 103.17 41.493C103.458 41.749 103.846 41.877 104.334 41.877ZM111.53 42.837C111.226 42.837 110.982 42.749 110.798 42.573C110.622 42.397 110.534 42.161 110.534 41.865C110.534 41.553 110.622 41.305 110.798 41.121C110.982 40.937 111.226 40.845 111.53 40.845C111.834 40.845 112.074 40.937 112.25 41.121C112.434 41.305 112.526 41.553 112.526 41.865C112.526 42.161 112.434 42.397 112.25 42.573C112.074 42.749 111.834 42.837 111.53 42.837ZM117.369 42.717L119.853 38.733L119.805 38.697C119.653 38.921 119.445 39.093 119.181 39.213C118.917 39.333 118.621 39.393 118.293 39.393C117.821 39.393 117.405 39.281 117.045 39.057C116.693 38.833 116.421 38.517 116.229 38.109C116.037 37.693 115.941 37.209 115.941 36.657C115.941 36.089 116.057 35.597 116.289 35.181C116.521 34.757 116.845 34.429 117.261 34.197C117.677 33.957 118.161 33.837 118.713 33.837C119.273 33.837 119.761 33.957 120.177 34.197C120.601 34.429 120.929 34.757 121.161 35.181C121.393 35.597 121.509 36.089 121.509 36.657C121.509 37.097 121.445 37.529 121.317 37.953C121.197 38.377 121.013 38.785 120.765 39.177L118.569 42.717H117.369ZM118.725 38.517C119.237 38.517 119.649 38.349 119.961 38.013C120.273 37.669 120.429 37.217 120.429 36.657C120.429 36.097 120.273 35.649 119.961 35.313C119.649 34.969 119.237 34.797 118.725 34.797C118.213 34.797 117.801 34.969 117.489 35.313C117.177 35.649 117.021 36.097 117.021 36.657C117.021 37.217 117.177 37.669 117.489 38.013C117.801 38.349 118.213 38.517 118.725 38.517ZM125.92 42.837C125.384 42.837 124.916 42.733 124.516 42.525C124.124 42.309 123.82 42.009 123.604 41.625C123.388 41.233 123.28 40.777 123.28 40.257V36.417C123.28 35.889 123.388 35.433 123.604 35.049C123.82 34.665 124.124 34.369 124.516 34.161C124.916 33.945 125.384 33.837 125.92 33.837C126.464 33.837 126.932 33.945 127.324 34.161C127.716 34.369 128.02 34.665 128.236 35.049C128.452 35.433 128.56 35.889 128.56 36.417V40.257C128.56 40.777 128.452 41.233 128.236 41.625C128.02 42.009 127.712 42.309 127.312 42.525C126.92 42.733 126.456 42.837 125.92 42.837ZM125.92 41.913C126.4 41.913 126.784 41.761 127.072 41.457C127.368 41.145 127.516 40.745 127.516 40.257V36.417C127.516 35.929 127.368 35.533 127.072 35.229C126.784 34.917 126.4 34.761 125.92 34.761C125.44 34.761 125.052 34.917 124.756 35.229C124.468 35.533 124.324 35.929 124.324 36.417V40.257C124.324 40.745 124.468 41.145 124.756 41.457C125.052 41.761 125.44 41.913 125.92 41.913ZM125.92 39.045C125.704 39.045 125.528 38.977 125.392 38.841C125.264 38.705 125.2 38.525 125.2 38.301C125.2 38.085 125.264 37.913 125.392 37.785C125.528 37.649 125.704 37.581 125.92 37.581C126.136 37.581 126.308 37.649 126.436 37.785C126.572 37.913 126.64 38.085 126.64 38.301C126.64 38.525 126.572 38.705 126.436 38.841C126.308 38.977 126.136 39.045 125.92 39.045ZM133.116 42.837C132.58 42.837 132.112 42.733 131.712 42.525C131.32 42.309 131.016 42.009 130.8 41.625C130.584 41.233 130.476 40.777 130.476 40.257V36.417C130.476 35.889 130.584 35.433 130.8 35.049C131.016 34.665 131.32 34.369 131.712 34.161C132.112 33.945 132.58 33.837 133.116 33.837C133.66 33.837 134.128 33.945 134.52 34.161C134.912 34.369 135.216 34.665 135.432 35.049C135.648 35.433 135.756 35.889 135.756 36.417V40.257C135.756 40.777 135.648 41.233 135.432 41.625C135.216 42.009 134.908 42.309 134.508 42.525C134.116 42.733 133.652 42.837 133.116 42.837ZM133.116 41.913C133.596 41.913 133.98 41.761 134.268 41.457C134.564 41.145 134.712 40.745 134.712 40.257V36.417C134.712 35.929 134.564 35.533 134.268 35.229C133.98 34.917 133.596 34.761 133.116 34.761C132.636 34.761 132.248 34.917 131.952 35.229C131.664 35.533 131.52 35.929 131.52 36.417V40.257C131.52 40.745 131.664 41.145 131.952 41.457C132.248 41.761 132.636 41.913 133.116 41.913ZM133.116 39.045C132.9 39.045 132.724 38.977 132.588 38.841C132.46 38.705 132.396 38.525 132.396 38.301C132.396 38.085 132.46 37.913 132.588 37.785C132.724 37.649 132.9 37.581 133.116 37.581C133.332 37.581 133.504 37.649 133.632 37.785C133.768 37.913 133.836 38.085 133.836 38.301C133.836 38.525 133.768 38.705 133.632 38.841C133.504 38.977 133.332 39.045 133.116 39.045Z" fill="white"/>
</svg>
