<svg width="36" height="20" viewBox="0 0 36 20" fill="none" xmlns="http://www.w3.org/2000/svg">
<path d="M18 1C22.3218 1 26 4.92772 26 10C26 15.0723 22.3218 19 18 19C13.6782 19 10 15.0723 10 10C10 4.92772 13.6782 1 18 1Z" stroke="black" stroke-width="2"/>
<path d="M18 1C21.6815 1 24.973 2.06701 27.3184 3.74219C29.6656 5.4188 31 7.64535 31 10C31 12.3547 29.6656 14.5812 27.3184 16.2578C24.973 17.933 21.6815 19 18 19C14.3185 19 11.027 17.933 8.68164 16.2578C6.33438 14.5812 5 12.3547 5 10C5 7.64535 6.33438 5.4188 8.68164 3.74219C11.027 2.06701 14.3185 1 18 1Z" stroke="black" stroke-width="2"/>
<path d="M18 1C22.8332 1 27.1596 2.09025 30.2422 3.80273C33.3587 5.53411 35 7.76665 35 10C35 12.2334 33.3587 14.4659 30.2422 16.1973C27.1596 17.9098 22.8332 19 18 19C13.1668 19 8.84041 17.9098 5.75781 16.1973C2.64133 14.4659 1 12.2334 1 10C1 7.76665 2.64133 5.53411 5.75781 3.80273C8.84041 2.09025 13.1668 1 18 1Z" stroke="black" stroke-width="2"/>
<path d="M1 10L35 10" stroke="black" stroke-width="2"/>
<line x1="18" y1="1" x2="18" y2="19" stroke="black" stroke-width="2"/>
</svg>
